<svg xmlns="http://www.w3.org/2000/svg" viewBox="0 0 512 512" width="100%" height="100%">
  <defs>
    <linearGradient id="bgGrad" x1="0%" y1="0%" x2="100%" y2="100%">
      <stop offset="0%" stop-color="#141310"/>
      <stop offset="100%" stop-color="#09090b"/>
    </linearGradient>
    <linearGradient id="glowGrad1" x1="0%" y1="0%" x2="100%" y2="100%">
      <stop offset="0%" stop-color="#fef08a"/>
      <stop offset="50%" stop-color="#fbbf24"/>
      <stop offset="100%" stop-color="#f59e0b"/>
    </linearGradient>
    <linearGradient id="glowGrad2" x1="100%" y1="0%" x2="0%" y2="100%">
      <stop offset="0%" stop-color="#fbbf24"/>
      <stop offset="100%" stop-color="#d97706"/>
    </linearGradient>
    <filter id="glow" x="-20%" y="-20%" width="140%" height="140%">
      <feGaussianBlur stdDeviation="8" result="blur" />
      <feComposite in="SourceGraphic" in2="blur" operator="over"/>
    </filter>
  </defs>
  <rect width="512" height="512" rx="112" fill="url(#bgGrad)" stroke="#382d19" stroke-width="4"/>
  <g filter="url(#glow)">
    <path d="M 136 160 C 136 140, 240 120, 240 140 L 240 370 C 240 350, 136 370, 136 390 Z" fill="none" stroke="url(#glowGrad1)" stroke-width="14" stroke-linejoin="round"/>
    <path d="M 376 160 C 376 140, 272 120, 272 140 L 272 370 C 272 350, 376 370, 376 390 Z" fill="none" stroke="url(#glowGrad1)" stroke-width="14" stroke-linejoin="round"/>
    <path d="M 256 120 C 210 160, 210 320, 256 380 C 280 320, 270 170, 256 120 Z" fill="url(#glowGrad2)" opacity="0.9"/>
    <path d="M 256 120 C 210 160, 210 320, 256 380" fill="none" stroke="#f59e0b" stroke-width="10" stroke-linecap="round"/>
    <line x1="295" y1="210" x2="345" y2="210" stroke="#f59e0b" stroke-width="10" stroke-linecap="round"/>
    <line x1="295" y1="245" x2="345" y2="245" stroke="#fbbf24" stroke-width="10" stroke-linecap="round"/>
    <line x1="295" y1="280" x2="330" y2="280" stroke="#fef08a" stroke-width="10" stroke-linecap="round"/>
    <circle cx="335" cy="325" r="10" fill="#fbbf24"/>
  </g>
</svg>
